<svg version="1.2" xmlns="http://www.w3.org/2000/svg" viewBox="0 0 210 210" width="210" height="210">
	<title>bend-svg</title>
	<defs>
		<linearGradient id="g1" x1="168" y1="-45.7" x2="-54.7" y2="210.5" gradientUnits="userSpaceOnUse">
			<stop offset="0" stop-color="#e5b25d"/>
			<stop offset="1" stop-color="#ef5b5b"/>
		</linearGradient>
		<linearGradient id="g2" x1="154.9" y1="-65.4" x2="-84.1" y2="190.9" gradientUnits="userSpaceOnUse">
			<stop offset="0" stop-color="#e5b25d"/>
			<stop offset="1" stop-color="#ef5b5b"/>
		</linearGradient>
		<linearGradient id="g3" x1="40.8" y1="-60" x2="-37.7" y2="124.9" gradientUnits="userSpaceOnUse">
			<stop offset="0" stop-color="#e5b25d"/>
			<stop offset="1" stop-color="#ef5b5b"/>
		</linearGradient>
	</defs>
	<style>
		.s0 { fill: url(#g1) } 
		.s1 { fill: url(#g2) } 
		.s2 { fill: url(#g3) } 
	</style>
	<g id="&lt;Group&gt;">
		<path id="&lt;Path&gt;" class="s0" d="m98.4 164.7h-92.1v-21.8h91.7c5.7 0 10.9 4.3 11.3 10c0.3 3.4-0.9 6.5-3.1 8.6c-2 2-4.7 3.2-7.8 3.2z" />
		<path id="&lt;Path&gt;" class="s1" d="m98.4 122.1h-92.1v-21.9h91.7c5.7 0 10.9 4.3 11.3 10c0.3 3.4-0.9 6.5-3.1 8.7c-2 2-4.7 3.2-7.8 3.2z" />
		<path id="&lt;Path&gt;" class="s2" d="m72.4 79.4h-15h-14.8h-36.3v-5.5c0-37.4 30.2-67.6 67.5-67.6h129.2v129.2c0 37.3-30.2 67.6-67.5 67.6l-129.5-0.1v-17.2l94.5-0.3c8.8 0 16.7-3.5 22.5-9.3c5.7-5.7 9.3-13.6 9.3-22.4c0-8.2-3.1-15.7-8.3-21.3c5.1-5.7 8.3-13.1 8.3-21.3c0-17.6-14.2-31.8-31.8-31.8h-13.4z" />
	</g>
</svg>